<mxfile host="Electron" agent="Mozilla/5.0 (Macintosh; Intel Mac OS X 10_15_7) AppleWebKit/537.36 (KHTML, like Gecko) draw.io/24.7.17 Chrome/128.0.6613.36 Electron/32.0.1 Safari/537.36" version="24.7.17">
  <diagram name="Page-1" id="JOxkyo4Vb48CfmVMjy2K">
    <mxGraphModel dx="1434" dy="1892" grid="1" gridSize="10" guides="1" tooltips="1" connect="1" arrows="1" fold="1" page="1" pageScale="1" pageWidth="850" pageHeight="1100" math="0" shadow="0">
      <root>
        <mxCell id="0" />
        <mxCell id="1" parent="0" />
        <mxCell id="igjMNasGhxhWualyUDFI-5" value="Region A (Primary)" style="points=[[0,0],[0.25,0],[0.5,0],[0.75,0],[1,0],[1,0.25],[1,0.5],[1,0.75],[1,1],[0.75,1],[0.5,1],[0.25,1],[0,1],[0,0.75],[0,0.5],[0,0.25]];outlineConnect=0;gradientColor=none;html=1;whiteSpace=wrap;fontSize=12;fontStyle=0;container=1;pointerEvents=0;collapsible=0;recursiveResize=0;shape=mxgraph.aws4.group;grIcon=mxgraph.aws4.group_region;strokeColor=#02619c;fillColor=none;verticalAlign=top;align=left;spacingLeft=30;fontColor=#147EBA;dashed=1;" parent="1" vertex="1">
          <mxGeometry x="310" y="90" width="1750" height="980" as="geometry" />
        </mxCell>
        <mxCell id="igjMNasGhxhWualyUDFI-188" value="" style="rounded=0;whiteSpace=wrap;html=1;strokeColor=none;fillColor=#E8E8E8;" parent="igjMNasGhxhWualyUDFI-5" vertex="1">
          <mxGeometry x="60" y="500" width="120" height="240" as="geometry" />
        </mxCell>
        <mxCell id="igjMNasGhxhWualyUDFI-176" value="" style="group" parent="igjMNasGhxhWualyUDFI-5" vertex="1" connectable="0">
          <mxGeometry x="360" y="20" width="1310" height="910" as="geometry" />
        </mxCell>
        <mxCell id="igjMNasGhxhWualyUDFI-95" style="edgeStyle=orthogonalEdgeStyle;rounded=0;orthogonalLoop=1;jettySize=auto;html=1;entryX=0.5;entryY=0;entryDx=0;entryDy=0;entryPerimeter=0;" parent="igjMNasGhxhWualyUDFI-176" source="igjMNasGhxhWualyUDFI-92" target="igjMNasGhxhWualyUDFI-93" edge="1">
          <mxGeometry relative="1" as="geometry">
            <mxPoint x="405" y="236.00065907593034" as="targetPoint" />
            <Array as="points" />
          </mxGeometry>
        </mxCell>
        <mxCell id="igjMNasGhxhWualyUDFI-92" value="Internet Gateway" style="sketch=0;outlineConnect=0;fontColor=#232F3E;gradientColor=none;fillColor=#0000CC;strokeColor=none;dashed=0;verticalLabelPosition=bottom;verticalAlign=top;align=center;html=1;fontSize=12;fontStyle=0;aspect=fixed;pointerEvents=1;shape=mxgraph.aws4.internet_gateway;" parent="igjMNasGhxhWualyUDFI-176" vertex="1">
          <mxGeometry x="376" y="80" width="58" height="58" as="geometry" />
        </mxCell>
        <mxCell id="igjMNasGhxhWualyUDFI-6" value="VPC" style="points=[[0,0],[0.25,0],[0.5,0],[0.75,0],[1,0],[1,0.25],[1,0.5],[1,0.75],[1,1],[0.75,1],[0.5,1],[0.25,1],[0,1],[0,0.75],[0,0.5],[0,0.25]];outlineConnect=0;gradientColor=none;html=1;whiteSpace=wrap;fontSize=12;fontStyle=0;container=1;pointerEvents=0;collapsible=0;recursiveResize=0;shape=mxgraph.aws4.group;grIcon=mxgraph.aws4.group_vpc2;strokeColor=#009900;fillColor=none;verticalAlign=top;align=left;spacingLeft=30;fontColor=#AAB7B8;dashed=0;" parent="igjMNasGhxhWualyUDFI-176" vertex="1">
          <mxGeometry y="110" width="790" height="800" as="geometry" />
        </mxCell>
        <mxCell id="igjMNasGhxhWualyUDFI-10" value="" style="rounded=1;arcSize=10;dashed=1;strokeColor=#F59D56;fillColor=none;gradientColor=none;dashPattern=8 4;strokeWidth=2;" parent="igjMNasGhxhWualyUDFI-6" vertex="1">
          <mxGeometry x="470" y="80" width="270" height="670" as="geometry" />
        </mxCell>
        <mxCell id="igjMNasGhxhWualyUDFI-8" value="" style="rounded=1;arcSize=10;dashed=1;strokeColor=#F59D56;fillColor=none;gradientColor=none;dashPattern=8 4;strokeWidth=2;" parent="igjMNasGhxhWualyUDFI-6" vertex="1">
          <mxGeometry x="75" y="80" width="260" height="670" as="geometry" />
        </mxCell>
        <mxCell id="igjMNasGhxhWualyUDFI-9" value="Availability Zone 1" style="text;html=1;align=center;verticalAlign=middle;resizable=0;points=[];autosize=1;strokeColor=none;fillColor=none;" parent="igjMNasGhxhWualyUDFI-6" vertex="1">
          <mxGeometry x="145" y="40" width="120" height="30" as="geometry" />
        </mxCell>
        <mxCell id="igjMNasGhxhWualyUDFI-11" value="Availability Zone 2" style="text;html=1;align=center;verticalAlign=middle;resizable=0;points=[];autosize=1;strokeColor=none;fillColor=none;" parent="igjMNasGhxhWualyUDFI-6" vertex="1">
          <mxGeometry x="545" y="40" width="120" height="30" as="geometry" />
        </mxCell>
        <mxCell id="igjMNasGhxhWualyUDFI-13" value="Application Layer" style="points=[[0,0],[0.25,0],[0.5,0],[0.75,0],[1,0],[1,0.25],[1,0.5],[1,0.75],[1,1],[0.75,1],[0.5,1],[0.25,1],[0,1],[0,0.75],[0,0.5],[0,0.25]];outlineConnect=0;gradientColor=none;html=1;whiteSpace=wrap;fontSize=12;fontStyle=0;container=1;pointerEvents=0;collapsible=0;recursiveResize=0;shape=mxgraph.aws4.group;grIcon=mxgraph.aws4.group_security_group;grStroke=0;strokeColor=#00A4A6;fillColor=#E6F6F7;verticalAlign=top;align=left;spacingLeft=30;fontColor=#147EBA;dashed=0;" parent="igjMNasGhxhWualyUDFI-6" vertex="1">
          <mxGeometry x="90" y="270" width="220" height="300" as="geometry" />
        </mxCell>
        <mxCell id="igjMNasGhxhWualyUDFI-14" value="Connection Layer" style="points=[[0,0],[0.25,0],[0.5,0],[0.75,0],[1,0],[1,0.25],[1,0.5],[1,0.75],[1,1],[0.75,1],[0.5,1],[0.25,1],[0,1],[0,0.75],[0,0.5],[0,0.25]];outlineConnect=0;gradientColor=none;html=1;whiteSpace=wrap;fontSize=12;fontStyle=0;container=1;pointerEvents=0;collapsible=0;recursiveResize=0;shape=mxgraph.aws4.group;grIcon=mxgraph.aws4.group_security_group;grStroke=0;strokeColor=#7AA116;fillColor=#F2F6E8;verticalAlign=top;align=left;spacingLeft=30;fontColor=#248814;dashed=0;" parent="igjMNasGhxhWualyUDFI-6" vertex="1">
          <mxGeometry x="90" y="100" width="220" height="150" as="geometry" />
        </mxCell>
        <mxCell id="igjMNasGhxhWualyUDFI-73" value="Nat Gateway" style="sketch=0;outlineConnect=0;fontColor=#232F3E;gradientColor=none;fillColor=#3333FF;strokeColor=none;dashed=0;verticalLabelPosition=bottom;verticalAlign=top;align=center;html=1;fontSize=12;fontStyle=0;aspect=fixed;pointerEvents=1;shape=mxgraph.aws4.nat_gateway;" parent="igjMNasGhxhWualyUDFI-14" vertex="1">
          <mxGeometry x="36" y="48" width="54" height="54" as="geometry" />
        </mxCell>
        <mxCell id="igjMNasGhxhWualyUDFI-15" value="Data Layer" style="points=[[0,0],[0.25,0],[0.5,0],[0.75,0],[1,0],[1,0.25],[1,0.5],[1,0.75],[1,1],[0.75,1],[0.5,1],[0.25,1],[0,1],[0,0.75],[0,0.5],[0,0.25]];outlineConnect=0;gradientColor=none;html=1;whiteSpace=wrap;fontSize=12;fontStyle=0;container=1;pointerEvents=0;collapsible=0;recursiveResize=0;shape=mxgraph.aws4.group;grIcon=mxgraph.aws4.group_security_group;grStroke=0;strokeColor=#00A4A6;fillColor=#E6F6F7;verticalAlign=top;align=left;spacingLeft=30;fontColor=#147EBA;dashed=0;" parent="igjMNasGhxhWualyUDFI-6" vertex="1">
          <mxGeometry x="90" y="580" width="220" height="160" as="geometry" />
        </mxCell>
        <mxCell id="igjMNasGhxhWualyUDFI-17" value="Connection Layer" style="points=[[0,0],[0.25,0],[0.5,0],[0.75,0],[1,0],[1,0.25],[1,0.5],[1,0.75],[1,1],[0.75,1],[0.5,1],[0.25,1],[0,1],[0,0.75],[0,0.5],[0,0.25]];outlineConnect=0;gradientColor=none;html=1;whiteSpace=wrap;fontSize=12;fontStyle=0;container=1;pointerEvents=0;collapsible=0;recursiveResize=0;shape=mxgraph.aws4.group;grIcon=mxgraph.aws4.group_security_group;grStroke=0;strokeColor=#7AA116;fillColor=#F2F6E8;verticalAlign=top;align=left;spacingLeft=30;fontColor=#248814;dashed=0;" parent="igjMNasGhxhWualyUDFI-6" vertex="1">
          <mxGeometry x="500" y="100" width="220" height="150" as="geometry" />
        </mxCell>
        <mxCell id="igjMNasGhxhWualyUDFI-16" value="Application Layer" style="points=[[0,0],[0.25,0],[0.5,0],[0.75,0],[1,0],[1,0.25],[1,0.5],[1,0.75],[1,1],[0.75,1],[0.5,1],[0.25,1],[0,1],[0,0.75],[0,0.5],[0,0.25]];outlineConnect=0;gradientColor=none;html=1;whiteSpace=wrap;fontSize=12;fontStyle=0;container=1;pointerEvents=0;collapsible=0;recursiveResize=0;shape=mxgraph.aws4.group;grIcon=mxgraph.aws4.group_security_group;grStroke=0;strokeColor=#00A4A6;fillColor=#E6F6F7;verticalAlign=top;align=left;spacingLeft=30;fontColor=#147EBA;dashed=0;" parent="igjMNasGhxhWualyUDFI-6" vertex="1">
          <mxGeometry x="500" y="270" width="220" height="300" as="geometry" />
        </mxCell>
        <mxCell id="igjMNasGhxhWualyUDFI-18" value="Data Layer" style="points=[[0,0],[0.25,0],[0.5,0],[0.75,0],[1,0],[1,0.25],[1,0.5],[1,0.75],[1,1],[0.75,1],[0.5,1],[0.25,1],[0,1],[0,0.75],[0,0.5],[0,0.25]];outlineConnect=0;gradientColor=none;html=1;whiteSpace=wrap;fontSize=12;fontStyle=0;container=1;pointerEvents=0;collapsible=0;recursiveResize=0;shape=mxgraph.aws4.group;grIcon=mxgraph.aws4.group_security_group;grStroke=0;strokeColor=#00A4A6;fillColor=#E6F6F7;verticalAlign=top;align=left;spacingLeft=30;fontColor=#147EBA;dashed=0;" parent="igjMNasGhxhWualyUDFI-6" vertex="1">
          <mxGeometry x="500" y="590" width="220" height="150" as="geometry" />
        </mxCell>
        <mxCell id="igjMNasGhxhWualyUDFI-165" value="&lt;span style=&quot;color: rgb(0, 0, 0);&quot;&gt;Aurora - Reader Instance&amp;nbsp;&lt;/span&gt;&lt;div style=&quot;color: rgb(0, 0, 0);&quot;&gt;(can upto 15 read replicas)&lt;/div&gt;" style="sketch=0;points=[[0,0,0],[0.25,0,0],[0.5,0,0],[0.75,0,0],[1,0,0],[0,1,0],[0.25,1,0],[0.5,1,0],[0.75,1,0],[1,1,0],[0,0.25,0],[0,0.5,0],[0,0.75,0],[1,0.25,0],[1,0.5,0],[1,0.75,0]];outlineConnect=0;fontColor=#232F3E;fillColor=#0000FF;strokeColor=#ffffff;dashed=0;verticalLabelPosition=bottom;verticalAlign=top;align=center;html=1;fontSize=12;fontStyle=0;aspect=fixed;shape=mxgraph.aws4.resourceIcon;resIcon=mxgraph.aws4.rds;gradientColor=#6666FF;" parent="igjMNasGhxhWualyUDFI-18" vertex="1">
          <mxGeometry x="75" y="43" width="60" height="60" as="geometry" />
        </mxCell>
        <mxCell id="igjMNasGhxhWualyUDFI-21" value="Auto Scaling group" style="points=[[0,0],[0.25,0],[0.5,0],[0.75,0],[1,0],[1,0.25],[1,0.5],[1,0.75],[1,1],[0.75,1],[0.5,1],[0.25,1],[0,1],[0,0.75],[0,0.5],[0,0.25]];outlineConnect=0;gradientColor=none;html=1;whiteSpace=wrap;fontSize=12;fontStyle=0;container=1;pointerEvents=0;collapsible=0;recursiveResize=0;shape=mxgraph.aws4.groupCenter;grIcon=mxgraph.aws4.group_auto_scaling_group;grStroke=1;strokeColor=#D86613;fillColor=none;verticalAlign=top;align=center;fontColor=#D86613;dashed=1;spacingTop=25;" parent="igjMNasGhxhWualyUDFI-6" vertex="1">
          <mxGeometry x="110" y="360" width="590" height="170" as="geometry" />
        </mxCell>
        <mxCell id="igjMNasGhxhWualyUDFI-36" value="" style="group" parent="igjMNasGhxhWualyUDFI-6" vertex="1" connectable="0">
          <mxGeometry x="125" y="373" width="160" height="140" as="geometry" />
        </mxCell>
        <mxCell id="igjMNasGhxhWualyUDFI-35" value="" style="rounded=0;whiteSpace=wrap;html=1;fillColor=none;strokeColor=#fd790d;dashed=1;" parent="igjMNasGhxhWualyUDFI-36" vertex="1">
          <mxGeometry y="20" width="160" height="120" as="geometry" />
        </mxCell>
        <mxCell id="igjMNasGhxhWualyUDFI-19" value="&lt;font style=&quot;font-size: 10px;&quot;&gt;ECS Container Instances&lt;/font&gt;" style="sketch=0;points=[[0,0,0],[0.25,0,0],[0.5,0,0],[0.75,0,0],[1,0,0],[0,1,0],[0.25,1,0],[0.5,1,0],[0.75,1,0],[1,1,0],[0,0.25,0],[0,0.5,0],[0,0.75,0],[1,0.25,0],[1,0.5,0],[1,0.75,0]];outlineConnect=0;fontColor=#232F3E;fillColor=#ED7100;strokeColor=#ffffff;dashed=0;verticalLabelPosition=bottom;verticalAlign=top;align=center;html=1;fontSize=12;fontStyle=0;aspect=fixed;shape=mxgraph.aws4.resourceIcon;resIcon=mxgraph.aws4.ec2;" parent="igjMNasGhxhWualyUDFI-36" vertex="1">
          <mxGeometry x="60" width="40" height="40" as="geometry" />
        </mxCell>
        <mxCell id="igjMNasGhxhWualyUDFI-32" value="&lt;font style=&quot;font-size: 10px;&quot;&gt;ECS Task&lt;/font&gt;" style="sketch=0;outlineConnect=0;fontColor=#232F3E;gradientColor=none;fillColor=#ED7100;strokeColor=none;dashed=0;verticalLabelPosition=bottom;verticalAlign=top;align=center;html=1;fontSize=12;fontStyle=0;aspect=fixed;pointerEvents=1;shape=mxgraph.aws4.ecs_task;" parent="igjMNasGhxhWualyUDFI-36" vertex="1">
          <mxGeometry x="30.710000000000008" y="80" width="29.29" height="38" as="geometry" />
        </mxCell>
        <mxCell id="igjMNasGhxhWualyUDFI-33" value="&lt;font style=&quot;font-size: 10px;&quot;&gt;ECS Task&lt;/font&gt;" style="sketch=0;outlineConnect=0;fontColor=#232F3E;gradientColor=none;fillColor=#ED7100;strokeColor=none;dashed=0;verticalLabelPosition=bottom;verticalAlign=top;align=center;html=1;fontSize=12;fontStyle=0;aspect=fixed;pointerEvents=1;shape=mxgraph.aws4.ecs_task;" parent="igjMNasGhxhWualyUDFI-36" vertex="1">
          <mxGeometry x="100" y="80" width="29.29" height="38" as="geometry" />
        </mxCell>
        <mxCell id="igjMNasGhxhWualyUDFI-46" value="" style="group" parent="igjMNasGhxhWualyUDFI-6" vertex="1" connectable="0">
          <mxGeometry x="525" y="373" width="160" height="140" as="geometry" />
        </mxCell>
        <mxCell id="igjMNasGhxhWualyUDFI-47" value="" style="rounded=0;whiteSpace=wrap;html=1;fillColor=none;strokeColor=#fd790d;dashed=1;" parent="igjMNasGhxhWualyUDFI-46" vertex="1">
          <mxGeometry y="20" width="160" height="120" as="geometry" />
        </mxCell>
        <mxCell id="igjMNasGhxhWualyUDFI-48" value="&lt;font style=&quot;font-size: 10px;&quot;&gt;ECS Container Instances&lt;/font&gt;" style="sketch=0;points=[[0,0,0],[0.25,0,0],[0.5,0,0],[0.75,0,0],[1,0,0],[0,1,0],[0.25,1,0],[0.5,1,0],[0.75,1,0],[1,1,0],[0,0.25,0],[0,0.5,0],[0,0.75,0],[1,0.25,0],[1,0.5,0],[1,0.75,0]];outlineConnect=0;fontColor=#232F3E;fillColor=#ED7100;strokeColor=#ffffff;dashed=0;verticalLabelPosition=bottom;verticalAlign=top;align=center;html=1;fontSize=12;fontStyle=0;aspect=fixed;shape=mxgraph.aws4.resourceIcon;resIcon=mxgraph.aws4.ec2;" parent="igjMNasGhxhWualyUDFI-46" vertex="1">
          <mxGeometry x="60" width="40" height="40" as="geometry" />
        </mxCell>
        <mxCell id="igjMNasGhxhWualyUDFI-49" value="&lt;font style=&quot;font-size: 10px;&quot;&gt;ECS Task&lt;/font&gt;" style="sketch=0;outlineConnect=0;fontColor=#232F3E;gradientColor=none;fillColor=#ED7100;strokeColor=none;dashed=0;verticalLabelPosition=bottom;verticalAlign=top;align=center;html=1;fontSize=12;fontStyle=0;aspect=fixed;pointerEvents=1;shape=mxgraph.aws4.ecs_task;" parent="igjMNasGhxhWualyUDFI-46" vertex="1">
          <mxGeometry x="30.710000000000008" y="80" width="29.29" height="38" as="geometry" />
        </mxCell>
        <mxCell id="igjMNasGhxhWualyUDFI-50" value="&lt;font style=&quot;font-size: 10px;&quot;&gt;ECS Task&lt;/font&gt;" style="sketch=0;outlineConnect=0;fontColor=#232F3E;gradientColor=none;fillColor=#ED7100;strokeColor=none;dashed=0;verticalLabelPosition=bottom;verticalAlign=top;align=center;html=1;fontSize=12;fontStyle=0;aspect=fixed;pointerEvents=1;shape=mxgraph.aws4.ecs_task;" parent="igjMNasGhxhWualyUDFI-46" vertex="1">
          <mxGeometry x="100" y="80" width="29.29" height="38" as="geometry" />
        </mxCell>
        <mxCell id="igjMNasGhxhWualyUDFI-64" style="edgeStyle=orthogonalEdgeStyle;rounded=0;orthogonalLoop=1;jettySize=auto;html=1;" parent="igjMNasGhxhWualyUDFI-6" source="igjMNasGhxhWualyUDFI-63" edge="1">
          <mxGeometry relative="1" as="geometry">
            <mxPoint x="235.5" y="663" as="targetPoint" />
          </mxGeometry>
        </mxCell>
        <mxCell id="igjMNasGhxhWualyUDFI-65" style="edgeStyle=orthogonalEdgeStyle;rounded=0;orthogonalLoop=1;jettySize=auto;html=1;" parent="igjMNasGhxhWualyUDFI-6" source="igjMNasGhxhWualyUDFI-68" edge="1">
          <mxGeometry relative="1" as="geometry">
            <mxPoint x="575" y="663" as="targetPoint" />
          </mxGeometry>
        </mxCell>
        <mxCell id="igjMNasGhxhWualyUDFI-63" value="" style="sketch=0;outlineConnect=0;fontColor=#232F3E;gradientColor=none;fillColor=#0000FF;strokeColor=none;dashed=0;verticalLabelPosition=bottom;verticalAlign=top;align=center;html=1;fontSize=12;fontStyle=0;aspect=fixed;pointerEvents=1;shape=mxgraph.aws4.rds_proxy;" parent="igjMNasGhxhWualyUDFI-6" vertex="1">
          <mxGeometry x="382" y="640" width="46" height="46" as="geometry" />
        </mxCell>
        <mxCell id="igjMNasGhxhWualyUDFI-67" value="" style="sketch=0;pointerEvents=1;shadow=0;dashed=0;html=1;strokeColor=none;labelPosition=center;verticalLabelPosition=bottom;verticalAlign=top;outlineConnect=0;align=center;shape=mxgraph.office.security.lock_protected;fillColor=#DA4026;" parent="igjMNasGhxhWualyUDFI-6" vertex="1">
          <mxGeometry x="398" y="590" width="14" height="20" as="geometry" />
        </mxCell>
        <mxCell id="igjMNasGhxhWualyUDFI-68" value="" style="sketch=0;pointerEvents=1;shadow=0;dashed=0;html=1;strokeColor=none;labelPosition=center;verticalLabelPosition=bottom;verticalAlign=top;outlineConnect=0;align=center;shape=mxgraph.office.security.lock_protected;fillColor=#DA4026;" parent="igjMNasGhxhWualyUDFI-6" vertex="1">
          <mxGeometry x="486" y="653" width="14" height="20" as="geometry" />
        </mxCell>
        <mxCell id="igjMNasGhxhWualyUDFI-69" value="" style="edgeStyle=orthogonalEdgeStyle;rounded=0;orthogonalLoop=1;jettySize=auto;html=1;" parent="igjMNasGhxhWualyUDFI-6" source="igjMNasGhxhWualyUDFI-63" target="igjMNasGhxhWualyUDFI-68" edge="1">
          <mxGeometry relative="1" as="geometry">
            <mxPoint x="988" y="883" as="sourcePoint" />
            <mxPoint x="1140" y="883" as="targetPoint" />
          </mxGeometry>
        </mxCell>
        <mxCell id="igjMNasGhxhWualyUDFI-70" value="" style="sketch=0;pointerEvents=1;shadow=0;dashed=0;html=1;strokeColor=none;labelPosition=center;verticalLabelPosition=bottom;verticalAlign=top;outlineConnect=0;align=center;shape=mxgraph.office.security.lock_protected;fillColor=#DA4026;" parent="igjMNasGhxhWualyUDFI-6" vertex="1">
          <mxGeometry x="310" y="655" width="14" height="20" as="geometry" />
        </mxCell>
        <mxCell id="igjMNasGhxhWualyUDFI-85" value="ECS Cluster" style="text;html=1;align=left;verticalAlign=middle;whiteSpace=wrap;rounded=0;" parent="igjMNasGhxhWualyUDFI-6" vertex="1">
          <mxGeometry x="128" y="320" width="82" height="30" as="geometry" />
        </mxCell>
        <mxCell id="igjMNasGhxhWualyUDFI-90" value="" style="edgeStyle=orthogonalEdgeStyle;rounded=0;orthogonalLoop=1;jettySize=auto;html=1;entryX=0.5;entryY=0;entryDx=0;entryDy=0;endArrow=none;endFill=0;" parent="igjMNasGhxhWualyUDFI-6" source="igjMNasGhxhWualyUDFI-93" target="igjMNasGhxhWualyUDFI-87" edge="1">
          <mxGeometry relative="1" as="geometry">
            <mxPoint x="405" y="183.99934092406966" as="sourcePoint" />
            <mxPoint x="965" y="580" as="targetPoint" />
            <Array as="points">
              <mxPoint x="405" y="220" />
              <mxPoint x="405" y="220" />
            </Array>
          </mxGeometry>
        </mxCell>
        <mxCell id="igjMNasGhxhWualyUDFI-87" value="" style="sketch=0;pointerEvents=1;shadow=0;dashed=0;html=1;strokeColor=none;labelPosition=center;verticalLabelPosition=bottom;verticalAlign=top;outlineConnect=0;align=center;shape=mxgraph.office.security.lock_protected;fillColor=#DA4026;" parent="igjMNasGhxhWualyUDFI-6" vertex="1">
          <mxGeometry x="398" y="250" width="14" height="20" as="geometry" />
        </mxCell>
        <mxCell id="igjMNasGhxhWualyUDFI-111" value="ALB" style="sketch=0;outlineConnect=0;fontColor=#232F3E;gradientColor=none;fillColor=#3333FF;strokeColor=none;dashed=0;verticalLabelPosition=bottom;verticalAlign=top;align=center;html=1;fontSize=12;fontStyle=0;aspect=fixed;pointerEvents=1;shape=mxgraph.aws4.application_load_balancer;" parent="igjMNasGhxhWualyUDFI-6" vertex="1">
          <mxGeometry x="210" y="148" width="58" height="58" as="geometry" />
        </mxCell>
        <mxCell id="igjMNasGhxhWualyUDFI-112" value="ALB" style="sketch=0;outlineConnect=0;fontColor=#232F3E;gradientColor=none;fillColor=#3333FF;strokeColor=none;dashed=0;verticalLabelPosition=bottom;verticalAlign=top;align=center;html=1;fontSize=12;fontStyle=0;aspect=fixed;pointerEvents=1;shape=mxgraph.aws4.application_load_balancer;" parent="igjMNasGhxhWualyUDFI-6" vertex="1">
          <mxGeometry x="545" y="148" width="58" height="58" as="geometry" />
        </mxCell>
        <mxCell id="igjMNasGhxhWualyUDFI-119" style="edgeStyle=orthogonalEdgeStyle;rounded=0;orthogonalLoop=1;jettySize=auto;html=1;" parent="igjMNasGhxhWualyUDFI-6" source="igjMNasGhxhWualyUDFI-93" target="igjMNasGhxhWualyUDFI-111" edge="1">
          <mxGeometry relative="1" as="geometry" />
        </mxCell>
        <mxCell id="igjMNasGhxhWualyUDFI-120" style="edgeStyle=orthogonalEdgeStyle;rounded=0;orthogonalLoop=1;jettySize=auto;html=1;exitX=1;exitY=0.5;exitDx=0;exitDy=0;exitPerimeter=0;" parent="igjMNasGhxhWualyUDFI-6" source="igjMNasGhxhWualyUDFI-93" target="igjMNasGhxhWualyUDFI-112" edge="1">
          <mxGeometry relative="1" as="geometry" />
        </mxCell>
        <mxCell id="igjMNasGhxhWualyUDFI-93" value="WAF" style="sketch=0;points=[[0,0,0],[0.25,0,0],[0.5,0,0],[0.75,0,0],[1,0,0],[0,1,0],[0.25,1,0],[0.5,1,0],[0.75,1,0],[1,1,0],[0,0.25,0],[0,0.5,0],[0,0.75,0],[1,0.25,0],[1,0.5,0],[1,0.75,0]];outlineConnect=0;fontColor=#232F3E;fillColor=#DD344C;strokeColor=#ffffff;dashed=0;verticalLabelPosition=bottom;verticalAlign=top;align=center;html=1;fontSize=12;fontStyle=0;aspect=fixed;shape=mxgraph.aws4.resourceIcon;resIcon=mxgraph.aws4.waf;" parent="igjMNasGhxhWualyUDFI-6" vertex="1">
          <mxGeometry x="377" y="149" width="56" height="56" as="geometry" />
        </mxCell>
        <mxCell id="igjMNasGhxhWualyUDFI-74" value="Nat Gateway" style="sketch=0;outlineConnect=0;fontColor=#232F3E;gradientColor=none;fillColor=#3333FF;strokeColor=none;dashed=0;verticalLabelPosition=bottom;verticalAlign=top;align=center;html=1;fontSize=12;fontStyle=0;aspect=fixed;pointerEvents=1;shape=mxgraph.aws4.nat_gateway;" parent="igjMNasGhxhWualyUDFI-6" vertex="1">
          <mxGeometry x="631" y="152" width="54" height="54" as="geometry" />
        </mxCell>
        <mxCell id="igjMNasGhxhWualyUDFI-163" value="&lt;span style=&quot;color: rgb(0, 0, 0);&quot;&gt;Aurora - Writer Instance&lt;/span&gt;" style="sketch=0;points=[[0,0,0],[0.25,0,0],[0.5,0,0],[0.75,0,0],[1,0,0],[0,1,0],[0.25,1,0],[0.5,1,0],[0.75,1,0],[1,1,0],[0,0.25,0],[0,0.5,0],[0,0.75,0],[1,0.25,0],[1,0.5,0],[1,0.75,0]];outlineConnect=0;fontColor=#232F3E;fillColor=#0000FF;strokeColor=#ffffff;dashed=0;verticalLabelPosition=bottom;verticalAlign=top;align=center;html=1;fontSize=12;fontStyle=0;aspect=fixed;shape=mxgraph.aws4.resourceIcon;resIcon=mxgraph.aws4.rds;gradientColor=#6666FF;" parent="igjMNasGhxhWualyUDFI-6" vertex="1">
          <mxGeometry x="175" y="630" width="60" height="60" as="geometry" />
        </mxCell>
        <mxCell id="JIKf8fJztSCwJzfDre9d-3" style="edgeStyle=orthogonalEdgeStyle;rounded=0;orthogonalLoop=1;jettySize=auto;html=1;exitX=1;exitY=0.5;exitDx=0;exitDy=0;entryX=0;entryY=0.5;entryDx=0;entryDy=0;entryPerimeter=0;dashed=1;" parent="igjMNasGhxhWualyUDFI-6" target="JIKf8fJztSCwJzfDre9d-2" edge="1">
          <mxGeometry relative="1" as="geometry">
            <mxPoint x="710" y="510" as="sourcePoint" />
            <mxPoint x="931" y="510" as="targetPoint" />
          </mxGeometry>
        </mxCell>
        <mxCell id="JIKf8fJztSCwJzfDre9d-4" value="&lt;span style=&quot;color: rgba(0, 0, 0, 0); font-family: monospace; font-size: 0px; text-align: start; background-color: rgb(251, 251, 251);&quot;&gt;%3CmxGraphModel%3E%3Croot%3E%3CmxCell%20id%3D%220%22%2F%3E%3CmxCell%20id%3D%221%22%20parent%3D%220%22%2F%3E%3CmxCell%20id%3D%222%22%20value%3D%22VPC%20Endpoint%22%20style%3D%22edgeLabel%3Bhtml%3D1%3Balign%3Dcenter%3BverticalAlign%3Dmiddle%3Bresizable%3D0%3Bpoints%3D%5B%5D%3B%22%20vertex%3D%221%22%20connectable%3D%220%22%20parent%3D%221%22%3E%3CmxGeometry%20x%3D%221399.0000000000005%22%20y%3D%22537.3333333333335%22%20as%3D%22geometry%22%2F%3E%3C%2FmxCell%3E%3C%2Froot%3E%3C%2FmxGraphModel%3E&lt;/span&gt;" style="edgeLabel;html=1;align=center;verticalAlign=middle;resizable=0;points=[];" parent="JIKf8fJztSCwJzfDre9d-3" vertex="1" connectable="0">
          <mxGeometry x="0.2185" y="2" relative="1" as="geometry">
            <mxPoint x="9" y="2" as="offset" />
          </mxGeometry>
        </mxCell>
        <mxCell id="JIKf8fJztSCwJzfDre9d-5" value="Offline Sync" style="edgeLabel;html=1;align=center;verticalAlign=middle;resizable=0;points=[];" parent="JIKf8fJztSCwJzfDre9d-3" vertex="1" connectable="0">
          <mxGeometry x="0.2857" y="1" relative="1" as="geometry">
            <mxPoint as="offset" />
          </mxGeometry>
        </mxCell>
        <mxCell id="igjMNasGhxhWualyUDFI-96" value="AWS Cognito" style="sketch=0;points=[[0,0,0],[0.25,0,0],[0.5,0,0],[0.75,0,0],[1,0,0],[0,1,0],[0.25,1,0],[0.5,1,0],[0.75,1,0],[1,1,0],[0,0.25,0],[0,0.5,0],[0,0.75,0],[1,0.25,0],[1,0.5,0],[1,0.75,0]];outlineConnect=0;fontColor=#232F3E;fillColor=#DD344C;strokeColor=#ffffff;dashed=0;verticalLabelPosition=bottom;verticalAlign=top;align=center;html=1;fontSize=12;fontStyle=0;aspect=fixed;shape=mxgraph.aws4.resourceIcon;resIcon=mxgraph.aws4.cognito;" parent="igjMNasGhxhWualyUDFI-176" vertex="1">
          <mxGeometry x="78" width="62" height="62" as="geometry" />
        </mxCell>
        <mxCell id="igjMNasGhxhWualyUDFI-126" style="edgeStyle=orthogonalEdgeStyle;rounded=0;orthogonalLoop=1;jettySize=auto;html=1;exitX=0.5;exitY=0;exitDx=0;exitDy=0;exitPerimeter=0;dashed=1;" parent="igjMNasGhxhWualyUDFI-176" source="igjMNasGhxhWualyUDFI-123" target="igjMNasGhxhWualyUDFI-6" edge="1">
          <mxGeometry relative="1" as="geometry">
            <Array as="points">
              <mxPoint x="940" y="840" />
              <mxPoint x="940" y="790" />
            </Array>
          </mxGeometry>
        </mxCell>
        <mxCell id="igjMNasGhxhWualyUDFI-123" value="Secrets Manager" style="sketch=0;points=[[0,0,0],[0.25,0,0],[0.5,0,0],[0.75,0,0],[1,0,0],[0,1,0],[0.25,1,0],[0.5,1,0],[0.75,1,0],[1,1,0],[0,0.25,0],[0,0.5,0],[0,0.75,0],[1,0.25,0],[1,0.5,0],[1,0.75,0]];outlineConnect=0;fontColor=#232F3E;fillColor=#DD344C;strokeColor=#ffffff;dashed=0;verticalLabelPosition=bottom;verticalAlign=top;align=center;html=1;fontSize=12;fontStyle=0;aspect=fixed;shape=mxgraph.aws4.resourceIcon;resIcon=mxgraph.aws4.secrets_manager;" parent="igjMNasGhxhWualyUDFI-176" vertex="1">
          <mxGeometry x="910" y="840" width="63" height="63" as="geometry" />
        </mxCell>
        <mxCell id="igjMNasGhxhWualyUDFI-127" value="VPC Endpoint" style="text;html=1;align=center;verticalAlign=middle;resizable=0;points=[];autosize=1;strokeColor=none;fillColor=none;" parent="igjMNasGhxhWualyUDFI-176" vertex="1">
          <mxGeometry x="810" y="758" width="100" height="30" as="geometry" />
        </mxCell>
        <mxCell id="igjMNasGhxhWualyUDFI-128" style="edgeStyle=orthogonalEdgeStyle;rounded=0;orthogonalLoop=1;jettySize=auto;html=1;entryX=0;entryY=0.5;entryDx=0;entryDy=0;entryPerimeter=0;" parent="igjMNasGhxhWualyUDFI-176" source="igjMNasGhxhWualyUDFI-63" target="igjMNasGhxhWualyUDFI-123" edge="1">
          <mxGeometry relative="1" as="geometry">
            <Array as="points">
              <mxPoint x="405" y="872" />
            </Array>
          </mxGeometry>
        </mxCell>
        <mxCell id="igjMNasGhxhWualyUDFI-136" style="edgeStyle=orthogonalEdgeStyle;rounded=0;orthogonalLoop=1;jettySize=auto;html=1;exitX=0;exitY=0.5;exitDx=0;exitDy=0;exitPerimeter=0;dashed=1;" parent="igjMNasGhxhWualyUDFI-176" source="igjMNasGhxhWualyUDFI-133" edge="1">
          <mxGeometry relative="1" as="geometry">
            <Array as="points">
              <mxPoint x="870" y="234" />
              <mxPoint x="870" y="234" />
            </Array>
            <mxPoint x="790" y="233.99999999999955" as="targetPoint" />
          </mxGeometry>
        </mxCell>
        <mxCell id="igjMNasGhxhWualyUDFI-133" value="Key Management Service" style="sketch=0;points=[[0,0,0],[0.25,0,0],[0.5,0,0],[0.75,0,0],[1,0,0],[0,1,0],[0.25,1,0],[0.5,1,0],[0.75,1,0],[1,1,0],[0,0.25,0],[0,0.5,0],[0,0.75,0],[1,0.25,0],[1,0.5,0],[1,0.75,0]];outlineConnect=0;fontColor=#232F3E;fillColor=#DD344C;strokeColor=#ffffff;dashed=0;verticalLabelPosition=bottom;verticalAlign=top;align=center;html=1;fontSize=12;fontStyle=0;aspect=fixed;shape=mxgraph.aws4.resourceIcon;resIcon=mxgraph.aws4.key_management_service;" parent="igjMNasGhxhWualyUDFI-176" vertex="1">
          <mxGeometry x="934" y="200" width="68" height="68" as="geometry" />
        </mxCell>
        <mxCell id="igjMNasGhxhWualyUDFI-135" value="VPC Endpoint" style="text;html=1;align=center;verticalAlign=middle;resizable=0;points=[];autosize=1;strokeColor=none;fillColor=none;" parent="igjMNasGhxhWualyUDFI-176" vertex="1">
          <mxGeometry x="810" y="210" width="100" height="30" as="geometry" />
        </mxCell>
        <mxCell id="igjMNasGhxhWualyUDFI-140" style="edgeStyle=orthogonalEdgeStyle;rounded=0;orthogonalLoop=1;jettySize=auto;html=1;dashed=1;" parent="igjMNasGhxhWualyUDFI-176" source="igjMNasGhxhWualyUDFI-139" edge="1">
          <mxGeometry relative="1" as="geometry">
            <Array as="points">
              <mxPoint x="900" y="123" />
              <mxPoint x="900" y="123" />
            </Array>
            <mxPoint x="790" y="123" as="targetPoint" />
          </mxGeometry>
        </mxCell>
        <mxCell id="igjMNasGhxhWualyUDFI-139" value="Certificate Manager" style="sketch=0;points=[[0,0,0],[0.25,0,0],[0.5,0,0],[0.75,0,0],[1,0,0],[0,1,0],[0.25,1,0],[0.5,1,0],[0.75,1,0],[1,1,0],[0,0.25,0],[0,0.5,0],[0,0.75,0],[1,0.25,0],[1,0.5,0],[1,0.75,0]];outlineConnect=0;fontColor=#232F3E;fillColor=#DD344C;strokeColor=#ffffff;dashed=0;verticalLabelPosition=bottom;verticalAlign=top;align=center;html=1;fontSize=12;fontStyle=0;aspect=fixed;shape=mxgraph.aws4.resourceIcon;resIcon=mxgraph.aws4.certificate_manager_3;" parent="igjMNasGhxhWualyUDFI-176" vertex="1">
          <mxGeometry x="934" y="90" width="66" height="66" as="geometry" />
        </mxCell>
        <mxCell id="igjMNasGhxhWualyUDFI-141" value="VPC Endpoint" style="text;html=1;align=center;verticalAlign=middle;resizable=0;points=[];autosize=1;strokeColor=none;fillColor=none;" parent="igjMNasGhxhWualyUDFI-176" vertex="1">
          <mxGeometry x="820" y="90" width="100" height="30" as="geometry" />
        </mxCell>
        <mxCell id="igjMNasGhxhWualyUDFI-142" value="Kinesis" style="sketch=0;points=[[0,0,0],[0.25,0,0],[0.5,0,0],[0.75,0,0],[1,0,0],[0,1,0],[0.25,1,0],[0.5,1,0],[0.75,1,0],[1,1,0],[0,0.25,0],[0,0.5,0],[0,0.75,0],[1,0.25,0],[1,0.5,0],[1,0.75,0]];outlineConnect=0;fontColor=#232F3E;fillColor=#8C4FFF;strokeColor=#ffffff;dashed=0;verticalLabelPosition=bottom;verticalAlign=top;align=center;html=1;fontSize=12;fontStyle=0;aspect=fixed;shape=mxgraph.aws4.resourceIcon;resIcon=mxgraph.aws4.kinesis;" parent="igjMNasGhxhWualyUDFI-176" vertex="1">
          <mxGeometry x="930" y="370" width="70" height="70" as="geometry" />
        </mxCell>
        <mxCell id="igjMNasGhxhWualyUDFI-152" value="JSON&lt;div&gt;w/ Gzip&lt;/div&gt;" style="edgeStyle=orthogonalEdgeStyle;rounded=0;orthogonalLoop=1;jettySize=auto;html=1;" parent="igjMNasGhxhWualyUDFI-176" source="igjMNasGhxhWualyUDFI-147" target="igjMNasGhxhWualyUDFI-151" edge="1">
          <mxGeometry x="-0.1429" y="5" relative="1" as="geometry">
            <Array as="points">
              <mxPoint x="1170" y="405" />
              <mxPoint x="1170" y="405" />
            </Array>
            <mxPoint as="offset" />
          </mxGeometry>
        </mxCell>
        <mxCell id="igjMNasGhxhWualyUDFI-147" value="Kinesis Firehose" style="sketch=0;points=[[0,0,0],[0.25,0,0],[0.5,0,0],[0.75,0,0],[1,0,0],[0,1,0],[0.25,1,0],[0.5,1,0],[0.75,1,0],[1,1,0],[0,0.25,0],[0,0.5,0],[0,0.75,0],[1,0.25,0],[1,0.5,0],[1,0.75,0]];outlineConnect=0;fontColor=#232F3E;fillColor=#8C4FFF;strokeColor=#ffffff;dashed=0;verticalLabelPosition=bottom;verticalAlign=top;align=center;html=1;fontSize=12;fontStyle=0;aspect=fixed;shape=mxgraph.aws4.resourceIcon;resIcon=mxgraph.aws4.kinesis_data_firehose;" parent="igjMNasGhxhWualyUDFI-176" vertex="1">
          <mxGeometry x="1070" y="370" width="70" height="70" as="geometry" />
        </mxCell>
        <mxCell id="igjMNasGhxhWualyUDFI-148" style="edgeStyle=orthogonalEdgeStyle;rounded=0;orthogonalLoop=1;jettySize=auto;html=1;exitX=1;exitY=0.5;exitDx=0;exitDy=0;exitPerimeter=0;entryX=0;entryY=0.5;entryDx=0;entryDy=0;entryPerimeter=0;" parent="igjMNasGhxhWualyUDFI-176" source="igjMNasGhxhWualyUDFI-142" target="igjMNasGhxhWualyUDFI-147" edge="1">
          <mxGeometry relative="1" as="geometry" />
        </mxCell>
        <mxCell id="igjMNasGhxhWualyUDFI-151" value="S3 Bucket" style="sketch=0;points=[[0,0,0],[0.25,0,0],[0.5,0,0],[0.75,0,0],[1,0,0],[0,1,0],[0.25,1,0],[0.5,1,0],[0.75,1,0],[1,1,0],[0,0.25,0],[0,0.5,0],[0,0.75,0],[1,0.25,0],[1,0.5,0],[1,0.75,0]];outlineConnect=0;fontColor=#232F3E;fillColor=#7AA116;strokeColor=#ffffff;dashed=0;verticalLabelPosition=bottom;verticalAlign=top;align=center;html=1;fontSize=12;fontStyle=0;aspect=fixed;shape=mxgraph.aws4.resourceIcon;resIcon=mxgraph.aws4.s3;" parent="igjMNasGhxhWualyUDFI-176" vertex="1">
          <mxGeometry x="1240" y="370" width="70" height="70" as="geometry" />
        </mxCell>
        <mxCell id="igjMNasGhxhWualyUDFI-159" value="Redshift Cluster&amp;nbsp;&lt;div&gt;(Data Warehousing for reporting)&lt;/div&gt;" style="sketch=0;points=[[0,0,0],[0.25,0,0],[0.5,0,0],[0.75,0,0],[1,0,0],[0,1,0],[0.25,1,0],[0.5,1,0],[0.75,1,0],[1,1,0],[0,0.25,0],[0,0.5,0],[0,0.75,0],[1,0.25,0],[1,0.5,0],[1,0.75,0]];outlineConnect=0;fontColor=#232F3E;fillColor=#8C4FFF;strokeColor=#ffffff;dashed=0;verticalLabelPosition=bottom;verticalAlign=top;align=center;html=1;fontSize=12;fontStyle=0;aspect=fixed;shape=mxgraph.aws4.resourceIcon;resIcon=mxgraph.aws4.redshift;" parent="igjMNasGhxhWualyUDFI-176" vertex="1">
          <mxGeometry x="1244" y="530" width="62" height="62" as="geometry" />
        </mxCell>
        <mxCell id="igjMNasGhxhWualyUDFI-160" style="edgeStyle=orthogonalEdgeStyle;rounded=0;orthogonalLoop=1;jettySize=auto;html=1;entryX=0.5;entryY=0;entryDx=0;entryDy=0;entryPerimeter=0;" parent="igjMNasGhxhWualyUDFI-176" source="igjMNasGhxhWualyUDFI-151" target="igjMNasGhxhWualyUDFI-159" edge="1">
          <mxGeometry relative="1" as="geometry" />
        </mxCell>
        <mxCell id="igjMNasGhxhWualyUDFI-161" value="COPY" style="edgeLabel;html=1;align=center;verticalAlign=middle;resizable=0;points=[];" parent="igjMNasGhxhWualyUDFI-160" vertex="1" connectable="0">
          <mxGeometry x="0.0741" relative="1" as="geometry">
            <mxPoint as="offset" />
          </mxGeometry>
        </mxCell>
        <mxCell id="igjMNasGhxhWualyUDFI-162" style="edgeStyle=orthogonalEdgeStyle;rounded=0;orthogonalLoop=1;jettySize=auto;html=1;entryX=0.5;entryY=0;entryDx=0;entryDy=0;entryPerimeter=0;" parent="igjMNasGhxhWualyUDFI-176" source="igjMNasGhxhWualyUDFI-159" edge="1">
          <mxGeometry relative="1" as="geometry">
            <mxPoint x="1275" y="660" as="targetPoint" />
          </mxGeometry>
        </mxCell>
        <mxCell id="igjMNasGhxhWualyUDFI-166" value="&lt;span style=&quot;color: rgb(0, 0, 0);&quot;&gt;Quicksight Reporting&lt;/span&gt;" style="sketch=0;points=[[0,0,0],[0.25,0,0],[0.5,0,0],[0.75,0,0],[1,0,0],[0,1,0],[0.25,1,0],[0.5,1,0],[0.75,1,0],[1,1,0],[0,0.25,0],[0,0.5,0],[0,0.75,0],[1,0.25,0],[1,0.5,0],[1,0.75,0]];outlineConnect=0;fontColor=#232F3E;fillColor=#8C4FFF;strokeColor=#ffffff;dashed=0;verticalLabelPosition=bottom;verticalAlign=top;align=center;html=1;fontSize=12;fontStyle=0;aspect=fixed;shape=mxgraph.aws4.resourceIcon;resIcon=mxgraph.aws4.quicksight;" parent="igjMNasGhxhWualyUDFI-176" vertex="1">
          <mxGeometry x="1240" y="660" width="70" height="70" as="geometry" />
        </mxCell>
        <mxCell id="igjMNasGhxhWualyUDFI-170" value="Session Manager" style="sketch=0;outlineConnect=0;fontColor=#232F3E;gradientColor=none;fillColor=#E7157B;strokeColor=none;dashed=0;verticalLabelPosition=bottom;verticalAlign=top;align=center;html=1;fontSize=12;fontStyle=0;aspect=fixed;pointerEvents=1;shape=mxgraph.aws4.systems_manager_session_manager;" parent="igjMNasGhxhWualyUDFI-176" vertex="1">
          <mxGeometry x="932.5" y="520" width="64" height="64" as="geometry" />
        </mxCell>
        <mxCell id="igjMNasGhxhWualyUDFI-100" value="" style="endArrow=classic;html=1;rounded=0;entryX=1;entryY=0.5;entryDx=0;entryDy=0;entryPerimeter=0;" parent="igjMNasGhxhWualyUDFI-176" edge="1">
          <mxGeometry width="50" height="50" relative="1" as="geometry">
            <mxPoint x="404" y="160" as="sourcePoint" />
            <mxPoint x="140" y="34" as="targetPoint" />
            <Array as="points">
              <mxPoint x="284" y="160" />
              <mxPoint x="284" y="34" />
            </Array>
          </mxGeometry>
        </mxCell>
        <mxCell id="igjMNasGhxhWualyUDFI-194" value="" style="outlineConnect=0;dashed=0;verticalLabelPosition=bottom;verticalAlign=top;align=center;html=1;shape=mxgraph.aws3.iam;fillColor=#759C3E;gradientColor=none;" parent="igjMNasGhxhWualyUDFI-176" vertex="1">
          <mxGeometry x="30" y="500" width="20" height="34" as="geometry" />
        </mxCell>
        <mxCell id="igjMNasGhxhWualyUDFI-264" value="" style="outlineConnect=0;dashed=0;verticalLabelPosition=bottom;verticalAlign=top;align=center;html=1;shape=mxgraph.aws3.iam;fillColor=#759C3E;gradientColor=none;" parent="igjMNasGhxhWualyUDFI-176" vertex="1">
          <mxGeometry x="434" y="850" width="20" height="34" as="geometry" />
        </mxCell>
        <mxCell id="JIKf8fJztSCwJzfDre9d-9" style="edgeStyle=orthogonalEdgeStyle;rounded=0;orthogonalLoop=1;jettySize=auto;html=1;" parent="igjMNasGhxhWualyUDFI-176" source="JIKf8fJztSCwJzfDre9d-2" target="JIKf8fJztSCwJzfDre9d-8" edge="1">
          <mxGeometry relative="1" as="geometry" />
        </mxCell>
        <mxCell id="JIKf8fJztSCwJzfDre9d-2" value="" style="sketch=0;points=[[0,0,0],[0.25,0,0],[0.5,0,0],[0.75,0,0],[1,0,0],[0,1,0],[0.25,1,0],[0.5,1,0],[0.75,1,0],[1,1,0],[0,0.25,0],[0,0.5,0],[0,0.75,0],[1,0.25,0],[1,0.5,0],[1,0.75,0]];outlineConnect=0;fontColor=#232F3E;fillColor=#E7157B;strokeColor=#ffffff;dashed=0;verticalLabelPosition=bottom;verticalAlign=top;align=center;html=1;fontSize=12;fontStyle=0;aspect=fixed;shape=mxgraph.aws4.resourceIcon;resIcon=mxgraph.aws4.appsync;" parent="igjMNasGhxhWualyUDFI-176" vertex="1">
          <mxGeometry x="926.5" y="650" width="70" height="70" as="geometry" />
        </mxCell>
        <mxCell id="JIKf8fJztSCwJzfDre9d-8" value="Data Store" style="sketch=0;points=[[0,0,0],[0.25,0,0],[0.5,0,0],[0.75,0,0],[1,0,0],[0,1,0],[0.25,1,0],[0.5,1,0],[0.75,1,0],[1,1,0],[0,0.25,0],[0,0.5,0],[0,0.75,0],[1,0.25,0],[1,0.5,0],[1,0.75,0]];outlineConnect=0;fontColor=#232F3E;fillColor=#C925D1;strokeColor=#ffffff;dashed=0;verticalLabelPosition=bottom;verticalAlign=top;align=center;html=1;fontSize=12;fontStyle=0;aspect=fixed;shape=mxgraph.aws4.resourceIcon;resIcon=mxgraph.aws4.dynamodb;" parent="igjMNasGhxhWualyUDFI-176" vertex="1">
          <mxGeometry x="1050" y="650" width="70" height="70" as="geometry" />
        </mxCell>
        <mxCell id="igjMNasGhxhWualyUDFI-179" value="" style="rounded=0;arcSize=10;dashed=1;fillColor=none;gradientColor=none;strokeWidth=1;" parent="igjMNasGhxhWualyUDFI-5" vertex="1">
          <mxGeometry x="40" y="225" width="160" height="530" as="geometry" />
        </mxCell>
        <mxCell id="igjMNasGhxhWualyUDFI-180" value="Devops" style="text;html=1;align=center;verticalAlign=middle;resizable=0;points=[];autosize=1;strokeColor=none;fillColor=none;" parent="igjMNasGhxhWualyUDFI-5" vertex="1">
          <mxGeometry x="90" y="195" width="60" height="30" as="geometry" />
        </mxCell>
        <mxCell id="igjMNasGhxhWualyUDFI-181" value="AWS CodeCommit" style="sketch=0;points=[[0,0,0],[0.25,0,0],[0.5,0,0],[0.75,0,0],[1,0,0],[0,1,0],[0.25,1,0],[0.5,1,0],[0.75,1,0],[1,1,0],[0,0.25,0],[0,0.5,0],[0,0.75,0],[1,0.25,0],[1,0.5,0],[1,0.75,0]];outlineConnect=0;fontColor=#232F3E;fillColor=#3333FF;strokeColor=#ffffff;dashed=0;verticalLabelPosition=bottom;verticalAlign=top;align=center;html=1;fontSize=12;fontStyle=0;aspect=fixed;shape=mxgraph.aws4.resourceIcon;resIcon=mxgraph.aws4.codecommit;gradientColor=#6666FF;" parent="igjMNasGhxhWualyUDFI-5" vertex="1">
          <mxGeometry x="86" y="257" width="68" height="68" as="geometry" />
        </mxCell>
        <mxCell id="igjMNasGhxhWualyUDFI-185" value="AWS CodePipeline" style="sketch=0;points=[[0,0,0],[0.25,0,0],[0.5,0,0],[0.75,0,0],[1,0,0],[0,1,0],[0.25,1,0],[0.5,1,0],[0.75,1,0],[1,1,0],[0,0.25,0],[0,0.5,0],[0,0.75,0],[1,0.25,0],[1,0.5,0],[1,0.75,0]];outlineConnect=0;fontColor=#232F3E;fillColor=#3333FF;strokeColor=#ffffff;dashed=0;verticalLabelPosition=bottom;verticalAlign=top;align=center;html=1;fontSize=12;fontStyle=0;aspect=fixed;shape=mxgraph.aws4.resourceIcon;resIcon=mxgraph.aws4.codepipeline;gradientColor=#6666FF;" parent="igjMNasGhxhWualyUDFI-5" vertex="1">
          <mxGeometry x="84" y="380" width="70" height="70" as="geometry" />
        </mxCell>
        <mxCell id="igjMNasGhxhWualyUDFI-186" value="AWS CodeDeploy" style="sketch=0;points=[[0,0,0],[0.25,0,0],[0.5,0,0],[0.75,0,0],[1,0,0],[0,1,0],[0.25,1,0],[0.5,1,0],[0.75,1,0],[1,1,0],[0,0.25,0],[0,0.5,0],[0,0.75,0],[1,0.25,0],[1,0.5,0],[1,0.75,0]];outlineConnect=0;fontColor=#232F3E;fillColor=#3333FF;strokeColor=#ffffff;dashed=0;verticalLabelPosition=bottom;verticalAlign=top;align=center;html=1;fontSize=12;fontStyle=0;aspect=fixed;shape=mxgraph.aws4.resourceIcon;resIcon=mxgraph.aws4.codedeploy;gradientColor=#6666FF;" parent="igjMNasGhxhWualyUDFI-5" vertex="1">
          <mxGeometry x="80" y="635" width="70" height="70" as="geometry" />
        </mxCell>
        <mxCell id="igjMNasGhxhWualyUDFI-187" value="AWS CodeBuild" style="sketch=0;points=[[0,0,0],[0.25,0,0],[0.5,0,0],[0.75,0,0],[1,0,0],[0,1,0],[0.25,1,0],[0.5,1,0],[0.75,1,0],[1,1,0],[0,0.25,0],[0,0.5,0],[0,0.75,0],[1,0.25,0],[1,0.5,0],[1,0.75,0]];outlineConnect=0;fontColor=#232F3E;fillColor=#3333FF;strokeColor=#ffffff;dashed=0;verticalLabelPosition=bottom;verticalAlign=top;align=center;html=1;fontSize=12;fontStyle=0;aspect=fixed;shape=mxgraph.aws4.resourceIcon;resIcon=mxgraph.aws4.codebuild;gradientColor=#6666FF;" parent="igjMNasGhxhWualyUDFI-5" vertex="1">
          <mxGeometry x="80" y="515" width="70" height="70" as="geometry" />
        </mxCell>
        <mxCell id="igjMNasGhxhWualyUDFI-191" style="edgeStyle=orthogonalEdgeStyle;rounded=0;orthogonalLoop=1;jettySize=auto;html=1;dashed=1;" parent="igjMNasGhxhWualyUDFI-5" source="igjMNasGhxhWualyUDFI-189" target="igjMNasGhxhWualyUDFI-6" edge="1">
          <mxGeometry relative="1" as="geometry">
            <Array as="points">
              <mxPoint x="271" y="480" />
            </Array>
          </mxGeometry>
        </mxCell>
        <mxCell id="igjMNasGhxhWualyUDFI-192" value="VPC Endpoint" style="edgeLabel;html=1;align=center;verticalAlign=middle;resizable=0;points=[];" parent="igjMNasGhxhWualyUDFI-191" vertex="1" connectable="0">
          <mxGeometry x="-0.0573" relative="1" as="geometry">
            <mxPoint as="offset" />
          </mxGeometry>
        </mxCell>
        <mxCell id="igjMNasGhxhWualyUDFI-189" value="ECR" style="sketch=0;points=[[0,0,0],[0.25,0,0],[0.5,0,0],[0.75,0,0],[1,0,0],[0,1,0],[0.25,1,0],[0.5,1,0],[0.75,1,0],[1,1,0],[0,0.25,0],[0,0.5,0],[0,0.75,0],[1,0.25,0],[1,0.5,0],[1,0.75,0]];outlineConnect=0;fontColor=#232F3E;fillColor=#ED7100;strokeColor=#ffffff;dashed=0;verticalLabelPosition=bottom;verticalAlign=top;align=center;html=1;fontSize=12;fontStyle=0;aspect=fixed;shape=mxgraph.aws4.resourceIcon;resIcon=mxgraph.aws4.ecr;" parent="igjMNasGhxhWualyUDFI-5" vertex="1">
          <mxGeometry x="240" y="518.75" width="62.5" height="62.5" as="geometry" />
        </mxCell>
        <mxCell id="igjMNasGhxhWualyUDFI-190" style="edgeStyle=orthogonalEdgeStyle;rounded=0;orthogonalLoop=1;jettySize=auto;html=1;exitX=1;exitY=0.5;exitDx=0;exitDy=0;exitPerimeter=0;entryX=0;entryY=0.5;entryDx=0;entryDy=0;entryPerimeter=0;" parent="igjMNasGhxhWualyUDFI-5" source="igjMNasGhxhWualyUDFI-187" target="igjMNasGhxhWualyUDFI-189" edge="1">
          <mxGeometry relative="1" as="geometry" />
        </mxCell>
        <mxCell id="igjMNasGhxhWualyUDFI-12" value="" style="group" parent="1" vertex="1" connectable="0">
          <mxGeometry x="1045" y="-200" width="230" height="120" as="geometry" />
        </mxCell>
        <mxCell id="igjMNasGhxhWualyUDFI-3" value="" style="rounded=0;whiteSpace=wrap;html=1;dashed=1;" parent="igjMNasGhxhWualyUDFI-12" vertex="1">
          <mxGeometry width="230" height="120" as="geometry" />
        </mxCell>
        <mxCell id="igjMNasGhxhWualyUDFI-1" value="" style="sketch=0;outlineConnect=0;fontColor=#232F3E;gradientColor=none;fillColor=#232F3D;strokeColor=none;dashed=0;verticalLabelPosition=bottom;verticalAlign=top;align=center;html=1;fontSize=12;fontStyle=0;aspect=fixed;pointerEvents=1;shape=mxgraph.aws4.client;" parent="igjMNasGhxhWualyUDFI-12" vertex="1">
          <mxGeometry x="40" y="40" width="71.84" height="70" as="geometry" />
        </mxCell>
        <mxCell id="igjMNasGhxhWualyUDFI-2" value="" style="sketch=0;outlineConnect=0;fontColor=#232F3E;gradientColor=none;fillColor=#232F3D;strokeColor=none;dashed=0;verticalLabelPosition=bottom;verticalAlign=top;align=center;html=1;fontSize=12;fontStyle=0;aspect=fixed;pointerEvents=1;shape=mxgraph.aws4.mobile_client;" parent="igjMNasGhxhWualyUDFI-12" vertex="1">
          <mxGeometry x="140" y="40" width="36.79" height="70" as="geometry" />
        </mxCell>
        <mxCell id="igjMNasGhxhWualyUDFI-4" value="Customers / Service Providers" style="text;html=1;align=center;verticalAlign=middle;whiteSpace=wrap;rounded=0;" parent="igjMNasGhxhWualyUDFI-12" vertex="1">
          <mxGeometry x="10" width="210" height="30" as="geometry" />
        </mxCell>
        <mxCell id="igjMNasGhxhWualyUDFI-84" value="" style="group" parent="1" vertex="1" connectable="0">
          <mxGeometry x="770" y="540" width="610" height="230" as="geometry" />
        </mxCell>
        <mxCell id="igjMNasGhxhWualyUDFI-80" value="" style="points=[[0,0],[0.25,0],[0.5,0],[0.75,0],[1,0],[1,0.25],[1,0.5],[1,0.75],[1,1],[0.75,1],[0.5,1],[0.25,1],[0,1],[0,0.75],[0,0.5],[0,0.25]];outlineConnect=0;gradientColor=none;html=1;whiteSpace=wrap;fontSize=12;fontStyle=0;container=0;pointerEvents=0;collapsible=0;recursiveResize=0;shape=mxgraph.aws4.group;grIcon=mxgraph.aws4.group_ec2_instance_contents;strokeColor=#D86613;fillColor=none;verticalAlign=top;align=left;spacingLeft=30;fontColor=#D86613;dashed=0;" parent="igjMNasGhxhWualyUDFI-84" vertex="1">
          <mxGeometry width="610" height="229.99999999999997" as="geometry" />
        </mxCell>
        <mxCell id="igjMNasGhxhWualyUDFI-22" value="" style="sketch=0;points=[[0,0,0],[0.25,0,0],[0.5,0,0],[0.75,0,0],[1,0,0],[0,1,0],[0.25,1,0],[0.5,1,0],[0.75,1,0],[1,1,0],[0,0.25,0],[0,0.5,0],[0,0.75,0],[1,0.25,0],[1,0.5,0],[1,0.75,0]];outlineConnect=0;fontColor=#232F3E;fillColor=#ED7100;strokeColor=#ffffff;dashed=0;verticalLabelPosition=bottom;verticalAlign=top;align=center;html=1;fontSize=12;fontStyle=0;aspect=fixed;shape=mxgraph.aws4.resourceIcon;resIcon=mxgraph.aws4.ecs;" parent="igjMNasGhxhWualyUDFI-84" vertex="1">
          <mxGeometry width="23.79310344827586" height="23.79310344827586" as="geometry" />
        </mxCell>
        <mxCell id="JIKf8fJztSCwJzfDre9d-11" value="&lt;font color=&quot;#cc6600&quot;&gt;Microservices&lt;/font&gt;" style="text;html=1;align=center;verticalAlign=middle;whiteSpace=wrap;rounded=0;" parent="igjMNasGhxhWualyUDFI-84" vertex="1">
          <mxGeometry x="80" y="107" width="60" height="30" as="geometry" />
        </mxCell>
        <mxCell id="JIKf8fJztSCwJzfDre9d-12" value="&lt;font color=&quot;#cc6600&quot;&gt;Microservices&lt;/font&gt;" style="text;html=1;align=center;verticalAlign=middle;whiteSpace=wrap;rounded=0;" parent="igjMNasGhxhWualyUDFI-84" vertex="1">
          <mxGeometry x="475" y="107" width="60" height="30" as="geometry" />
        </mxCell>
        <mxCell id="igjMNasGhxhWualyUDFI-66" style="rounded=0;orthogonalLoop=1;jettySize=auto;html=1;startArrow=block;startFill=1;entryX=0.5;entryY=1;entryDx=0;entryDy=0;" parent="1" source="igjMNasGhxhWualyUDFI-63" target="igjMNasGhxhWualyUDFI-80" edge="1">
          <mxGeometry relative="1" as="geometry" />
        </mxCell>
        <mxCell id="igjMNasGhxhWualyUDFI-102" style="edgeStyle=orthogonalEdgeStyle;rounded=0;orthogonalLoop=1;jettySize=auto;html=1;entryX=0;entryY=0.5;entryDx=0;entryDy=0;exitX=0.5;exitY=0;exitDx=0;exitDy=0;exitPerimeter=0;startArrow=classic;startFill=1;" parent="1" source="igjMNasGhxhWualyUDFI-101" target="igjMNasGhxhWualyUDFI-3" edge="1">
          <mxGeometry relative="1" as="geometry" />
        </mxCell>
        <mxCell id="igjMNasGhxhWualyUDFI-104" value="DNS/HTTPS" style="edgeLabel;html=1;align=center;verticalAlign=middle;resizable=0;points=[];" parent="igjMNasGhxhWualyUDFI-102" vertex="1" connectable="0">
          <mxGeometry x="0.0065" y="4" relative="1" as="geometry">
            <mxPoint x="22" y="4" as="offset" />
          </mxGeometry>
        </mxCell>
        <mxCell id="igjMNasGhxhWualyUDFI-360" style="edgeStyle=orthogonalEdgeStyle;rounded=0;orthogonalLoop=1;jettySize=auto;html=1;dashed=1;" parent="1" source="igjMNasGhxhWualyUDFI-101" target="igjMNasGhxhWualyUDFI-359" edge="1">
          <mxGeometry relative="1" as="geometry" />
        </mxCell>
        <mxCell id="igjMNasGhxhWualyUDFI-101" value="" style="sketch=0;points=[[0,0,0],[0.25,0,0],[0.5,0,0],[0.75,0,0],[1,0,0],[0,1,0],[0.25,1,0],[0.5,1,0],[0.75,1,0],[1,1,0],[0,0.25,0],[0,0.5,0],[0,0.75,0],[1,0.25,0],[1,0.5,0],[1,0.75,0]];outlineConnect=0;fontColor=#232F3E;fillColor=#8C4FFF;strokeColor=#ffffff;dashed=0;verticalLabelPosition=bottom;verticalAlign=top;align=center;html=1;fontSize=12;fontStyle=0;aspect=fixed;shape=mxgraph.aws4.resourceIcon;resIcon=mxgraph.aws4.route_53;" parent="1" vertex="1">
          <mxGeometry x="885" y="-80" width="70" height="70" as="geometry" />
        </mxCell>
        <mxCell id="igjMNasGhxhWualyUDFI-103" value="" style="sketch=0;pointerEvents=1;shadow=0;dashed=0;html=1;strokeColor=none;labelPosition=center;verticalLabelPosition=bottom;verticalAlign=top;outlineConnect=0;align=center;shape=mxgraph.office.security.lock_protected;fillColor=#DA4026;" parent="1" vertex="1">
          <mxGeometry x="941" y="-110" width="14" height="20" as="geometry" />
        </mxCell>
        <mxCell id="igjMNasGhxhWualyUDFI-108" value="" style="sketch=0;pointerEvents=1;shadow=0;dashed=0;html=1;strokeColor=none;labelPosition=center;verticalLabelPosition=bottom;verticalAlign=top;outlineConnect=0;align=center;shape=mxgraph.office.security.lock_protected;fillColor=#DA4026;" parent="1" vertex="1">
          <mxGeometry x="1015" y="30" width="14" height="20" as="geometry" />
        </mxCell>
        <mxCell id="igjMNasGhxhWualyUDFI-86" style="edgeStyle=orthogonalEdgeStyle;rounded=0;orthogonalLoop=1;jettySize=auto;html=1;entryX=0.5;entryY=0;entryDx=0;entryDy=0;" parent="1" source="igjMNasGhxhWualyUDFI-87" target="igjMNasGhxhWualyUDFI-80" edge="1">
          <mxGeometry relative="1" as="geometry" />
        </mxCell>
        <mxCell id="igjMNasGhxhWualyUDFI-89" value="HTTPS" style="edgeLabel;html=1;align=center;verticalAlign=middle;resizable=0;points=[];" parent="igjMNasGhxhWualyUDFI-86" vertex="1" connectable="0">
          <mxGeometry x="0.1818" y="1" relative="1" as="geometry">
            <mxPoint x="-1" y="-23" as="offset" />
          </mxGeometry>
        </mxCell>
        <mxCell id="igjMNasGhxhWualyUDFI-121" style="edgeStyle=orthogonalEdgeStyle;rounded=0;orthogonalLoop=1;jettySize=auto;html=1;" parent="1" source="igjMNasGhxhWualyUDFI-111" target="igjMNasGhxhWualyUDFI-80" edge="1">
          <mxGeometry relative="1" as="geometry" />
        </mxCell>
        <mxCell id="igjMNasGhxhWualyUDFI-122" style="edgeStyle=orthogonalEdgeStyle;rounded=0;orthogonalLoop=1;jettySize=auto;html=1;" parent="1" source="igjMNasGhxhWualyUDFI-112" target="igjMNasGhxhWualyUDFI-80" edge="1">
          <mxGeometry relative="1" as="geometry" />
        </mxCell>
        <mxCell id="igjMNasGhxhWualyUDFI-143" style="edgeStyle=orthogonalEdgeStyle;rounded=0;orthogonalLoop=1;jettySize=auto;html=1;exitX=1;exitY=0.25;exitDx=0;exitDy=0;dashed=1;" parent="1" source="igjMNasGhxhWualyUDFI-80" target="igjMNasGhxhWualyUDFI-142" edge="1">
          <mxGeometry relative="1" as="geometry">
            <Array as="points">
              <mxPoint x="1400" y="598" />
              <mxPoint x="1400" y="515" />
            </Array>
          </mxGeometry>
        </mxCell>
        <mxCell id="igjMNasGhxhWualyUDFI-144" value="VPC Endpoint" style="edgeLabel;html=1;align=center;verticalAlign=middle;resizable=0;points=[];" parent="igjMNasGhxhWualyUDFI-143" vertex="1" connectable="0">
          <mxGeometry x="0.3837" y="1" relative="1" as="geometry">
            <mxPoint y="19" as="offset" />
          </mxGeometry>
        </mxCell>
        <mxCell id="igjMNasGhxhWualyUDFI-172" style="edgeStyle=orthogonalEdgeStyle;rounded=0;orthogonalLoop=1;jettySize=auto;html=1;exitX=1;exitY=0.5;exitDx=0;exitDy=0;entryX=-0.026;entryY=0.391;entryDx=0;entryDy=0;entryPerimeter=0;dashed=1;" parent="1" source="igjMNasGhxhWualyUDFI-80" target="igjMNasGhxhWualyUDFI-170" edge="1">
          <mxGeometry relative="1" as="geometry" />
        </mxCell>
        <mxCell id="igjMNasGhxhWualyUDFI-173" value="&lt;span style=&quot;color: rgba(0, 0, 0, 0); font-family: monospace; font-size: 0px; text-align: start; background-color: rgb(251, 251, 251);&quot;&gt;%3CmxGraphModel%3E%3Croot%3E%3CmxCell%20id%3D%220%22%2F%3E%3CmxCell%20id%3D%221%22%20parent%3D%220%22%2F%3E%3CmxCell%20id%3D%222%22%20value%3D%22VPC%20Endpoint%22%20style%3D%22edgeLabel%3Bhtml%3D1%3Balign%3Dcenter%3BverticalAlign%3Dmiddle%3Bresizable%3D0%3Bpoints%3D%5B%5D%3B%22%20vertex%3D%221%22%20connectable%3D%220%22%20parent%3D%221%22%3E%3CmxGeometry%20x%3D%221399.0000000000005%22%20y%3D%22537.3333333333335%22%20as%3D%22geometry%22%2F%3E%3C%2FmxCell%3E%3C%2Froot%3E%3C%2FmxGraphModel%3E&lt;/span&gt;" style="edgeLabel;html=1;align=center;verticalAlign=middle;resizable=0;points=[];" parent="igjMNasGhxhWualyUDFI-172" vertex="1" connectable="0">
          <mxGeometry x="0.2185" y="2" relative="1" as="geometry">
            <mxPoint x="9" y="2" as="offset" />
          </mxGeometry>
        </mxCell>
        <mxCell id="igjMNasGhxhWualyUDFI-174" value="VPC Endpoint" style="edgeLabel;html=1;align=center;verticalAlign=middle;resizable=0;points=[];" parent="igjMNasGhxhWualyUDFI-172" vertex="1" connectable="0">
          <mxGeometry x="0.2857" y="1" relative="1" as="geometry">
            <mxPoint as="offset" />
          </mxGeometry>
        </mxCell>
        <mxCell id="igjMNasGhxhWualyUDFI-183" value="Developers" style="sketch=0;outlineConnect=0;fontColor=#232F3E;gradientColor=none;fillColor=#232F3D;strokeColor=none;dashed=0;verticalLabelPosition=bottom;verticalAlign=top;align=center;html=1;fontSize=12;fontStyle=0;aspect=fixed;pointerEvents=1;shape=mxgraph.aws4.user;" parent="1" vertex="1">
          <mxGeometry x="180" y="347" width="68" height="68" as="geometry" />
        </mxCell>
        <mxCell id="igjMNasGhxhWualyUDFI-184" style="edgeStyle=orthogonalEdgeStyle;rounded=0;orthogonalLoop=1;jettySize=auto;html=1;entryX=0;entryY=0.5;entryDx=0;entryDy=0;entryPerimeter=0;" parent="1" source="igjMNasGhxhWualyUDFI-183" target="igjMNasGhxhWualyUDFI-181" edge="1">
          <mxGeometry relative="1" as="geometry" />
        </mxCell>
        <mxCell id="igjMNasGhxhWualyUDFI-193" value="Pull Container&lt;div&gt;Image&lt;/div&gt;" style="edgeStyle=orthogonalEdgeStyle;rounded=0;orthogonalLoop=1;jettySize=auto;html=1;endArrow=none;endFill=0;startArrow=classic;startFill=1;" parent="1" source="igjMNasGhxhWualyUDFI-189" target="igjMNasGhxhWualyUDFI-80" edge="1">
          <mxGeometry x="0.2381" y="-20" relative="1" as="geometry">
            <Array as="points">
              <mxPoint x="680" y="640" />
              <mxPoint x="680" y="640" />
            </Array>
            <mxPoint as="offset" />
          </mxGeometry>
        </mxCell>
        <mxCell id="igjMNasGhxhWualyUDFI-265" style="edgeStyle=orthogonalEdgeStyle;rounded=0;orthogonalLoop=1;jettySize=auto;html=1;entryX=0;entryY=0.75;entryDx=0;entryDy=0;" parent="1" source="igjMNasGhxhWualyUDFI-186" target="igjMNasGhxhWualyUDFI-80" edge="1">
          <mxGeometry relative="1" as="geometry" />
        </mxCell>
        <mxCell id="igjMNasGhxhWualyUDFI-275" value="" style="group" parent="1" vertex="1" connectable="0">
          <mxGeometry x="810" y="1100" width="730" height="120" as="geometry" />
        </mxCell>
        <mxCell id="igjMNasGhxhWualyUDFI-267" value="" style="rounded=0;whiteSpace=wrap;html=1;strokeColor=none;fillColor=#f5f5f5;fontColor=#333333;" parent="igjMNasGhxhWualyUDFI-275" vertex="1">
          <mxGeometry width="730" height="120" as="geometry" />
        </mxCell>
        <mxCell id="igjMNasGhxhWualyUDFI-268" value="CloudFromation" style="sketch=0;points=[[0,0,0],[0.25,0,0],[0.5,0,0],[0.75,0,0],[1,0,0],[0,1,0],[0.25,1,0],[0.5,1,0],[0.75,1,0],[1,1,0],[0,0.25,0],[0,0.5,0],[0,0.75,0],[1,0.25,0],[1,0.5,0],[1,0.75,0]];points=[[0,0,0],[0.25,0,0],[0.5,0,0],[0.75,0,0],[1,0,0],[0,1,0],[0.25,1,0],[0.5,1,0],[0.75,1,0],[1,1,0],[0,0.25,0],[0,0.5,0],[0,0.75,0],[1,0.25,0],[1,0.5,0],[1,0.75,0]];outlineConnect=0;fontColor=#232F3E;fillColor=#E7157B;strokeColor=#ffffff;dashed=0;verticalLabelPosition=bottom;verticalAlign=top;align=center;html=1;fontSize=12;fontStyle=0;aspect=fixed;shape=mxgraph.aws4.resourceIcon;resIcon=mxgraph.aws4.cloudformation;" parent="igjMNasGhxhWualyUDFI-275" vertex="1">
          <mxGeometry x="30" y="20.5" width="59" height="59" as="geometry" />
        </mxCell>
        <mxCell id="igjMNasGhxhWualyUDFI-269" value="CloudTrail" style="sketch=0;points=[[0,0,0],[0.25,0,0],[0.5,0,0],[0.75,0,0],[1,0,0],[0,1,0],[0.25,1,0],[0.5,1,0],[0.75,1,0],[1,1,0],[0,0.25,0],[0,0.5,0],[0,0.75,0],[1,0.25,0],[1,0.5,0],[1,0.75,0]];points=[[0,0,0],[0.25,0,0],[0.5,0,0],[0.75,0,0],[1,0,0],[0,1,0],[0.25,1,0],[0.5,1,0],[0.75,1,0],[1,1,0],[0,0.25,0],[0,0.5,0],[0,0.75,0],[1,0.25,0],[1,0.5,0],[1,0.75,0]];outlineConnect=0;fontColor=#232F3E;fillColor=#E7157B;strokeColor=#ffffff;dashed=0;verticalLabelPosition=bottom;verticalAlign=top;align=center;html=1;fontSize=12;fontStyle=0;aspect=fixed;shape=mxgraph.aws4.resourceIcon;resIcon=mxgraph.aws4.cloudtrail;" parent="igjMNasGhxhWualyUDFI-275" vertex="1">
          <mxGeometry x="130" y="20.5" width="59" height="59" as="geometry" />
        </mxCell>
        <mxCell id="igjMNasGhxhWualyUDFI-270" value="CloudWatch" style="sketch=0;points=[[0,0,0],[0.25,0,0],[0.5,0,0],[0.75,0,0],[1,0,0],[0,1,0],[0.25,1,0],[0.5,1,0],[0.75,1,0],[1,1,0],[0,0.25,0],[0,0.5,0],[0,0.75,0],[1,0.25,0],[1,0.5,0],[1,0.75,0]];points=[[0,0,0],[0.25,0,0],[0.5,0,0],[0.75,0,0],[1,0,0],[0,1,0],[0.25,1,0],[0.5,1,0],[0.75,1,0],[1,1,0],[0,0.25,0],[0,0.5,0],[0,0.75,0],[1,0.25,0],[1,0.5,0],[1,0.75,0]];outlineConnect=0;fontColor=#232F3E;fillColor=#E7157B;strokeColor=#ffffff;dashed=0;verticalLabelPosition=bottom;verticalAlign=top;align=center;html=1;fontSize=12;fontStyle=0;aspect=fixed;shape=mxgraph.aws4.resourceIcon;resIcon=mxgraph.aws4.cloudwatch_2;" parent="igjMNasGhxhWualyUDFI-275" vertex="1">
          <mxGeometry x="230" y="20.5" width="59" height="59" as="geometry" />
        </mxCell>
        <mxCell id="igjMNasGhxhWualyUDFI-271" value="IAM" style="sketch=0;points=[[0,0,0],[0.25,0,0],[0.5,0,0],[0.75,0,0],[1,0,0],[0,1,0],[0.25,1,0],[0.5,1,0],[0.75,1,0],[1,1,0],[0,0.25,0],[0,0.5,0],[0,0.75,0],[1,0.25,0],[1,0.5,0],[1,0.75,0]];outlineConnect=0;fontColor=#232F3E;fillColor=#DD344C;strokeColor=#ffffff;dashed=0;verticalLabelPosition=bottom;verticalAlign=top;align=center;html=1;fontSize=12;fontStyle=0;aspect=fixed;shape=mxgraph.aws4.resourceIcon;resIcon=mxgraph.aws4.identity_and_access_management;" parent="igjMNasGhxhWualyUDFI-275" vertex="1">
          <mxGeometry x="325.5" y="20.5" width="59" height="59" as="geometry" />
        </mxCell>
        <mxCell id="igjMNasGhxhWualyUDFI-272" value="AWS Cost&lt;div&gt;Managemet&lt;/div&gt;" style="sketch=0;points=[[0,0,0],[0.25,0,0],[0.5,0,0],[0.75,0,0],[1,0,0],[0,1,0],[0.25,1,0],[0.5,1,0],[0.75,1,0],[1,1,0],[0,0.25,0],[0,0.5,0],[0,0.75,0],[1,0.25,0],[1,0.5,0],[1,0.75,0]];outlineConnect=0;fontColor=#232F3E;fillColor=#7AA116;strokeColor=#ffffff;dashed=0;verticalLabelPosition=bottom;verticalAlign=top;align=center;html=1;fontSize=12;fontStyle=0;aspect=fixed;shape=mxgraph.aws4.resourceIcon;resIcon=mxgraph.aws4.cost_management;" parent="igjMNasGhxhWualyUDFI-275" vertex="1">
          <mxGeometry x="420" y="20.5" width="59" height="59" as="geometry" />
        </mxCell>
        <mxCell id="igjMNasGhxhWualyUDFI-273" value="Trust Advisor" style="sketch=0;points=[[0,0,0],[0.25,0,0],[0.5,0,0],[0.75,0,0],[1,0,0],[0,1,0],[0.25,1,0],[0.5,1,0],[0.75,1,0],[1,1,0],[0,0.25,0],[0,0.5,0],[0,0.75,0],[1,0.25,0],[1,0.5,0],[1,0.75,0]];points=[[0,0,0],[0.25,0,0],[0.5,0,0],[0.75,0,0],[1,0,0],[0,1,0],[0.25,1,0],[0.5,1,0],[0.75,1,0],[1,1,0],[0,0.25,0],[0,0.5,0],[0,0.75,0],[1,0.25,0],[1,0.5,0],[1,0.75,0]];outlineConnect=0;fontColor=#232F3E;fillColor=#E7157B;strokeColor=#ffffff;dashed=0;verticalLabelPosition=bottom;verticalAlign=top;align=center;html=1;fontSize=12;fontStyle=0;aspect=fixed;shape=mxgraph.aws4.resourceIcon;resIcon=mxgraph.aws4.trusted_advisor;" parent="igjMNasGhxhWualyUDFI-275" vertex="1">
          <mxGeometry x="516" y="20.5" width="59" height="59" as="geometry" />
        </mxCell>
        <mxCell id="igjMNasGhxhWualyUDFI-274" value="Guard Duty" style="sketch=0;points=[[0,0,0],[0.25,0,0],[0.5,0,0],[0.75,0,0],[1,0,0],[0,1,0],[0.25,1,0],[0.5,1,0],[0.75,1,0],[1,1,0],[0,0.25,0],[0,0.5,0],[0,0.75,0],[1,0.25,0],[1,0.5,0],[1,0.75,0]];outlineConnect=0;fontColor=#232F3E;fillColor=#DD344C;strokeColor=#ffffff;dashed=0;verticalLabelPosition=bottom;verticalAlign=top;align=center;html=1;fontSize=12;fontStyle=0;aspect=fixed;shape=mxgraph.aws4.resourceIcon;resIcon=mxgraph.aws4.guardduty;" parent="igjMNasGhxhWualyUDFI-275" vertex="1">
          <mxGeometry x="615" y="21" width="59" height="59" as="geometry" />
        </mxCell>
        <mxCell id="igjMNasGhxhWualyUDFI-357" value="Region B (Warm Standby)" style="points=[[0,0],[0.25,0],[0.5,0],[0.75,0],[1,0],[1,0.25],[1,0.5],[1,0.75],[1,1],[0.75,1],[0.5,1],[0.25,1],[0,1],[0,0.75],[0,0.5],[0,0.25]];outlineConnect=0;gradientColor=none;html=1;whiteSpace=wrap;fontSize=12;fontStyle=0;container=1;pointerEvents=0;collapsible=0;recursiveResize=0;shape=mxgraph.aws4.group;grIcon=mxgraph.aws4.group_region;strokeColor=#024E7E;fillColor=none;verticalAlign=top;align=left;spacingLeft=30;fontColor=#147EBA;dashed=1;" parent="1" vertex="1">
          <mxGeometry x="310" y="-240" width="490" height="300" as="geometry" />
        </mxCell>
        <mxCell id="igjMNasGhxhWualyUDFI-358" value="Other Required Services" style="whiteSpace=wrap;html=1;aspect=fixed;strokeColor=none;fillColor=#f5f5f5;fontColor=#333333;" parent="igjMNasGhxhWualyUDFI-357" vertex="1">
          <mxGeometry x="30" y="95" width="110" height="110" as="geometry" />
        </mxCell>
        <mxCell id="igjMNasGhxhWualyUDFI-359" value="VPC" style="points=[[0,0],[0.25,0],[0.5,0],[0.75,0],[1,0],[1,0.25],[1,0.5],[1,0.75],[1,1],[0.75,1],[0.5,1],[0.25,1],[0,1],[0,0.75],[0,0.5],[0,0.25]];outlineConnect=0;gradientColor=none;html=1;whiteSpace=wrap;fontSize=12;fontStyle=0;container=1;pointerEvents=0;collapsible=0;recursiveResize=0;shape=mxgraph.aws4.group;grIcon=mxgraph.aws4.group_vpc2;strokeColor=#009900;fillColor=none;verticalAlign=top;align=left;spacingLeft=30;fontColor=#AAB7B8;dashed=0;" parent="igjMNasGhxhWualyUDFI-357" vertex="1">
          <mxGeometry x="173" y="60" width="277" height="200" as="geometry" />
        </mxCell>
        <mxCell id="igjMNasGhxhWualyUDFI-361" value="&lt;span style=&quot;color: rgb(0, 0, 0);&quot;&gt;RDS or Aurora&lt;/span&gt;" style="sketch=0;points=[[0,0,0],[0.25,0,0],[0.5,0,0],[0.75,0,0],[1,0,0],[0,1,0],[0.25,1,0],[0.5,1,0],[0.75,1,0],[1,1,0],[0,0.25,0],[0,0.5,0],[0,0.75,0],[1,0.25,0],[1,0.5,0],[1,0.75,0]];outlineConnect=0;fontColor=#232F3E;fillColor=#0000FF;strokeColor=#ffffff;dashed=0;verticalLabelPosition=bottom;verticalAlign=top;align=center;html=1;fontSize=12;fontStyle=0;aspect=fixed;shape=mxgraph.aws4.resourceIcon;resIcon=mxgraph.aws4.rds;gradientColor=#6666FF;" parent="igjMNasGhxhWualyUDFI-359" vertex="1">
          <mxGeometry x="47" y="70" width="60" height="60" as="geometry" />
        </mxCell>
        <mxCell id="igjMNasGhxhWualyUDFI-362" value="ECS Cluster" style="sketch=0;points=[[0,0,0],[0.25,0,0],[0.5,0,0],[0.75,0,0],[1,0,0],[0,1,0],[0.25,1,0],[0.5,1,0],[0.75,1,0],[1,1,0],[0,0.25,0],[0,0.5,0],[0,0.75,0],[1,0.25,0],[1,0.5,0],[1,0.75,0]];outlineConnect=0;fontColor=#232F3E;fillColor=#ED7100;strokeColor=#ffffff;dashed=0;verticalLabelPosition=bottom;verticalAlign=top;align=center;html=1;fontSize=12;fontStyle=0;aspect=fixed;shape=mxgraph.aws4.resourceIcon;resIcon=mxgraph.aws4.ecs;" parent="igjMNasGhxhWualyUDFI-359" vertex="1">
          <mxGeometry x="167" y="70" width="60" height="60" as="geometry" />
        </mxCell>
        <mxCell id="B8eZA_0aGdsTLG91SxK--2" value="" style="edgeStyle=orthogonalEdgeStyle;rounded=0;orthogonalLoop=1;jettySize=auto;html=1;" parent="1" source="igjMNasGhxhWualyUDFI-101" target="B8eZA_0aGdsTLG91SxK--1" edge="1">
          <mxGeometry relative="1" as="geometry">
            <Array as="points" />
            <mxPoint x="920" y="-10" as="sourcePoint" />
            <mxPoint x="1075" y="190" as="targetPoint" />
          </mxGeometry>
        </mxCell>
        <mxCell id="B8eZA_0aGdsTLG91SxK--3" value="HTTPS" style="edgeLabel;html=1;align=center;verticalAlign=middle;resizable=0;points=[];" parent="B8eZA_0aGdsTLG91SxK--2" vertex="1" connectable="0">
          <mxGeometry x="-0.5732" y="-1" relative="1" as="geometry">
            <mxPoint x="38" y="-1" as="offset" />
          </mxGeometry>
        </mxCell>
        <mxCell id="B8eZA_0aGdsTLG91SxK--4" style="edgeStyle=orthogonalEdgeStyle;rounded=0;orthogonalLoop=1;jettySize=auto;html=1;" parent="1" source="B8eZA_0aGdsTLG91SxK--1" target="igjMNasGhxhWualyUDFI-92" edge="1">
          <mxGeometry relative="1" as="geometry" />
        </mxCell>
        <mxCell id="B8eZA_0aGdsTLG91SxK--1" value="" style="sketch=0;points=[[0,0,0],[0.25,0,0],[0.5,0,0],[0.75,0,0],[1,0,0],[0,1,0],[0.25,1,0],[0.5,1,0],[0.75,1,0],[1,1,0],[0,0.25,0],[0,0.5,0],[0,0.75,0],[1,0.25,0],[1,0.5,0],[1,0.75,0]];outlineConnect=0;fontColor=#232F3E;fillColor=#E7157B;strokeColor=#ffffff;dashed=0;verticalLabelPosition=bottom;verticalAlign=top;align=center;html=1;fontSize=12;fontStyle=0;aspect=fixed;shape=mxgraph.aws4.resourceIcon;resIcon=mxgraph.aws4.api_gateway;" parent="1" vertex="1">
          <mxGeometry x="1036" y="60" width="78" height="78" as="geometry" />
        </mxCell>
        <mxCell id="B8eZA_0aGdsTLG91SxK--5" style="edgeStyle=orthogonalEdgeStyle;rounded=0;orthogonalLoop=1;jettySize=auto;html=1;exitX=0;exitY=0.5;exitDx=0;exitDy=0;exitPerimeter=0;entryX=0.5;entryY=0;entryDx=0;entryDy=0;entryPerimeter=0;" parent="1" source="B8eZA_0aGdsTLG91SxK--1" target="igjMNasGhxhWualyUDFI-96" edge="1">
          <mxGeometry relative="1" as="geometry">
            <Array as="points">
              <mxPoint x="779" y="99" />
            </Array>
          </mxGeometry>
        </mxCell>
      </root>
    </mxGraphModel>
  </diagram>
</mxfile>
